<?xml version="1.0" encoding="utf-8"?>
<!-- Generator: Adobe Illustrator 23.0.1, SVG Export Plug-In . SVG Version: 6.00 Build 0)  -->
<svg version="1.1" id="Layer_1" xmlns="http://www.w3.org/2000/svg" xmlns:xlink="http://www.w3.org/1999/xlink" x="0px" y="0px"
	 viewBox="0 0 127.42 105.98" style="enable-background:new 0 0 127.42 105.98;" xml:space="preserve">
<path d="M76.01,91.86c0.63,0.9,1.16,1.93,1.94,2.74c1.53,1.57,1.34,3.49,1,5.27c-0.25,1.3-1.53,2.09-2.92,2.16
	c-2.72,0.13-5.36,0.58-7.9,1.57c-0.2,0.08-0.41,0.15-0.61,0.16c-2.2,0.15-4.4,0.33-6.61,0.4c-1.85,0.06-2.58-0.55-3.04-2.29
	c-0.11-0.4-0.15-0.82-0.26-1.43c-3.02,0.39-5.93,0.93-8.86,1.08c-2.1,0.1-4.24-0.3-6.35-0.55c-0.47-0.06-0.93-0.38-1.35-0.64
	c-1.64-1.04-1.66-2.71-0.2-3.85c0.45-0.35,0.9-0.69,1.36-1.03c0.7-0.52,1.45-0.85,2.38-0.81c1.44,0.06,2.88,0.08,4.32,0.01
	c2.07-0.1,4.13-0.27,6.19-0.47c0.48-0.05,0.93-0.31,1.66-0.57c-1.16-0.92-2.07-1.86-3.16-2.48c-4.03-2.29-6.25-5.94-7.84-10.1
	c-0.17-0.45-0.38-0.9-0.61-1.46c-1.16,1.45-1.82,3.04-2.3,4.66c-1.23,4.21-3.3,8.01-5.47,11.78c-0.44,0.76-0.71,1.53-0.67,2.44
	c0.06,1.37,0.06,2.74,0.04,4.1c-0.02,1.53-0.8,2.55-2.19,3.12c-0.2,0.08-0.45,0.26-0.59,0.2c-0.97-0.42-1.89-0.17-2.86,0
	c-0.93,0.17-1.92,0.02-2.88-0.03c-1.39-0.07-3.35-1.53-3.6-2.64c-0.43-1.9,0.48-3.93,2.26-4.61c0.91-0.35,1.47-0.78,1.65-1.74
	c0.06-0.34,0.21-0.71,0.44-0.96c1.32-1.45,1.44-3.36,2.06-5.09c0.31-0.86,0.48-1.8,0.92-2.59c1.68-3.04,2.38-6.36,3.02-9.71
	c0.29-1.53,0.57-3.06,0.81-4.6c0.2-1.26-0.02-2.42-0.98-3.37c-0.67-0.66-1.33-1.32-1.96-2.01c-0.96-1.06-1.88-2.16-2.83-3.22
	c-1.04-1.15-1.52-1.19-2.72-0.29c-0.17,0.13-0.31,0.31-0.49,0.43c-1.73,1.12-2.9,0.79-4.26-0.73c-2.04-2.31-4.24-4.48-6.4-6.67
	c-0.85-0.86-1.84-1.59-2.7-2.44c-2.09-2.08-4.44-3.77-7.18-4.92c-1.58-0.66-3.08-1.44-4.4-2.6c-1.62-1.42-1.91-3.23-1.84-5.17
	c0.02-0.48,0.46-1.05,0.86-1.38c0.66-0.53,1.44-0.91,2.18-1.33c0.57-0.33,1.12-0.6,1.79-0.14c0.26,0.18,0.69,0.16,1.03,0.13
	c1.67-0.16,3.08,0.43,4.37,1.41c1.65,1.24,3.29,2.51,4.98,3.69c1.79,1.26,3.65,2.43,5.5,3.66c0.99-0.87,1.21-1.89,1.28-2.95
	c0.16-2.35,0.3-4.7,0.4-7.06c0.04-1.07,0.37-1.99,1.16-2.67c1.02-0.89,2.05-1.79,3.19-2.51c1.64-1.02,2.52-2.53,2.95-4.29
	c0.31-1.26,0.17-2.54-0.71-3.67c-0.83-1.07-1.53-2.23-2.28-3.36c-1.62-2.44-1.91-5.04-1.44-7.94c0.33-2.03,1.14-3.46,2.78-4.57
	c0.33-0.22,0.52-0.66,0.81-0.96c0.58-0.61,1.1-1.36,1.81-1.74C31.65,6.74,32.05,5.98,32.4,5c0.46-1.27,1.1-2.47,1.72-3.68
	c0.46-0.9,1.17-1.46,2.25-1.3c0.98,0.14,1.46,0.78,1.67,1.7c0.18,0.76,0.41,1.5,0.62,2.25c0.24,0.87,0.75,1.32,1.71,1.28
	c2.01-0.08,3.7,0.76,5.35,1.85c1.74,1.15,3.6,1.26,5.4,0c1.81-1.26,3.6-2.55,5.42-3.79c0.52-0.35,1.1-0.63,1.7-0.83
	c1.09-0.38,1.76-0.15,2.3,0.81c0.31,0.55,0.71,1.15,0.74,1.75c0.19,3.51,0.16,6.97-1.48,10.26c-0.87,1.75-2.04,3.26-3.21,4.78
	c-0.5,0.65-0.84,1.22-0.92,2.08c-0.24,2.32-1.45,3.98-3.77,4.67c-0.27,0.08-0.57,0.1-0.83,0.21c-1.33,0.55-2.34,1.45-2.52,2.93
	c-0.22,1.83-0.4,3.67,0.18,5.51c0.69,2.18,1.97,3.55,4.27,3.95c2.45,0.43,4.14,2.16,5.81,3.79c1.79,1.75,3.41,3.68,5.15,5.49
	c1.55,1.61,3.25,3.07,4.72,4.75c2.24,2.56,4.64,4.98,6.64,7.77c1.7,2.38,3.63,4.59,5.46,6.88c0.85,1.06,2.06,1.49,3.26,1.94
	c2.79,1.04,5.63,1.98,8.57,2.44c4.91,0.77,9.79,0.76,14.32-1.69c1.24-0.67,2.4-1.56,3.44-2.51c3.95-3.6,6.98-7.92,9.53-12.59
	c1.09-1.99,2.04-4.07,3.09-6.08c0.39-0.75,0.88-1.46,1.36-2.17c0.45-0.66,1.13-0.9,1.89-0.7c0.64,0.17,1.19,1.07,1.17,1.88
	c-0.01,0.35-0.09,0.7-0.15,1.05c-0.7,3.83-2.41,7.29-4.27,10.64c-1.52,2.73-3.32,5.31-5.04,7.94c-2.87,4.4-6.6,7.84-11.46,9.93
	c-3.08,1.32-6.3,2.17-9.68,2.3c-0.99,0.04-1.97,0.27-2.96,0.31c-0.47,0.02-0.95-0.23-1.44-0.28c-1.99-0.19-3.98-0.3-5.97-0.52
	c-1.23-0.13-2.06,0.22-2.52,1.43c-1.02,2.68-2.92,4.72-4.95,6.67C77.93,89.14,76.67,90.05,76.01,91.86z"/>
</svg>
