<?xml version="1.0" encoding="utf-8"?>
<!-- Generator: Adobe Illustrator 23.0.1, SVG Export Plug-In . SVG Version: 6.00 Build 0)  -->
<svg version="1.1" id="Layer_1" xmlns="http://www.w3.org/2000/svg" xmlns:xlink="http://www.w3.org/1999/xlink" x="0px" y="0px"
	 viewBox="0 0 399.45 448.68" style="enable-background:new 0 0 399.45 448.68;" xml:space="preserve">
<path d="M221.53,448.68c-5.14-5.72-6.83-13.05-7.09-20.11c-0.65-17.43-2.08-35.15,0.27-52.28c2.75-20.08,0.95-39.99,1.92-59.94
	c0.22-4.45,1.22-9.39-0.28-13.27c-1.78-4.63-2.02-9.05-2.15-13.72c-0.12-4.37,1.04-9.71-1.04-12.86c-2.59-3.93,1.21-9.32-3.81-11.91
	c0.72-4.6-0.94-9.22,1.6-13.98c1.91-3.58,2.61-8.92-1.24-12.09c-7.37-6.07-15.27-11.5-24.29-18.19c0.05,11.19-4.04,19.99-2.98,29.62
	c0.52,4.72-7.66,25.57-10.9,30.74c-8.57,13.68-17.96,26.66-30.13,37.45c-4.14,3.67-6.35,8.2-7.99,13.77
	c-1.53,5.18-1.75,8.87,0.09,14.05c2.29,6.46,2.16,13.79,3.18,21.57c6.11,4.94,10.8,12.55,18.94,16.67
	c4.67,2.36,6.26,7.02,4.69,12.49c-9.95,4.6-20,5.66-29.53-1.11c-7.44-5.28-10.36-13.63-11.3-21.99c-1.04-9.25-5.05-17.66-6-26.83
	c-0.19-1.84-1.53-3.63-1.48-5.42c0.26-7.89-1.68-15.25-4.42-22.56c-1.64-4.39-0.62-8.26,3.22-11.66
	c7.07-6.24,12.26-14.09,17.31-21.99c2.47-3.85,5.67-12.08,5.7-15.9c0.05-5.28,0.01-10.55,0.01-16.71
	c-3.64-2.51-5.81-7.15-11.25-9.03c-6.54-2.25-7.35-3.2-10.81,2.17c-3.84,5.96-6.51,12.69-9.59,19.13c-2.11,4.4-3.2,9.59-6.23,13.17
	c-7.43,8.78-9.07,19.86-13.07,29.96c-1.06,2.68-1.51,5.81-2.36,8.73c-1.85,6.37-5.68,13.18-0.28,19.82
	c-1.26,6.92,1.78,13.9-2.04,21.11c-2.29,4.31-1.16,10.47-2.44,15.92c-2.22,9.48-1.89,19.54-2.88,29.33
	c-0.5,4.97-1.56,9.89-2.39,14.82c-0.06,0.36-0.28,0.7-0.46,1.02c-1.27,2.25-18.79,10.91-21.22,10.5c-4.39-0.75-9.31-7.32-7.34-11.76
	C46.41,406.29,47,393.97,52,382.82c3.21-7.16,4.81-15.17,6.14-22.97c0.97-5.7,1.19-11.51,2.18-17.3c1.24-7.21,0.91-14.61,4.72-21.29
	c0.71-1.25,1-3.29,0.49-4.58c-4.23-10.72-1.46-21.99-2.64-34.13c-10.59,4.73-20.9,7.95-32.18,7.99
	c-11.21,0.04-20.67-4.85-30.71-8.94c9.81-1.34,19.67-1.04,29.48-0.92c6.78,0.08,12.96-1.61,18.63-5.03
	c2.08-1.26,4.09-3.22,5.24-5.35c6.09-11.21,6.16-14,2.65-29.84c-0.51-2.32-0.13-4.84-0.13-7.26c-0.01-9.74,0.38-19.5-0.09-29.22
	c-0.81-16.7,7.13-29.53,17.21-41.61c9.44-11.32,21.2-20.03,34.15-26.37c11.37-5.57,23.04-11.16,35.7-13.69
	c10.61-2.12,20.9-6.42,32.07-4.9c5.76-3.83,12.33-1.58,18.45-2.55c8.62-1.36,17.39-2.57,25.54-5.89
	c11.66-4.74,19.51-13.9,27.09-23.57c6.19-7.9,9.02-17.5,14.44-25.73c1.21-1.84,1.1-4.8,2.59-6.15c7.72-7,5-13.65-0.07-20.44
	c-0.19-0.26-0.02-0.79-0.02-2.07c7.34-7.31,14.6-15.47,24.53-20.84c14.03-7.58,28.95-12.15,44.63-9.27
	c7.83,1.44,16.2,0.96,23.6,4.52c3.18,1.53,5.74,3.48,8.26,6.56c5.73,7,8.68,15.17,12.4,23.01c1.17,2.47,1.37,6.64,0.03,8.8
	c-2.87,4.64-1,7.28,2.15,10.19c6.69,6.17,13.33,12.4,20.92,19.47c-0.94,7.56-2.05,16.47-3.36,26.99c-1.15,1.06-3.43,3.36-5.94,5.38
	c-1.13,0.91-2.83,1.94-4.06,1.72c-4.26-0.74-6.3,2.43-9.33,4.17c-4.93,2.83-10.52,5.51-16.34,1.98c-2.74-1.66-5.25-2.15-7.45,0.25
	c-5.44,5.92-10.22,4.56-15.18-0.69c-1.17-1.24-3.37-1.51-6.26-2.71c-0.73,1.68-1.85,4.24-2.96,6.8c-0.76-0.57-1.53-1.14-2.29-1.71
	c0,10.07-0.23,20.16,0.11,30.22c0.14,4.15,1.8,8.23,2.24,12.4c0.45,4.23,0.85,8.24,2.16,12.49c2.14,6.97,2.31,14.62,2.71,22.02
	c0.41,7.69,1.8,15.9-0.21,23.04c-7.84,27.95-3.45,56.35-4.41,84.52c-0.27,7.91-3.6,15.24-2.77,23.35
	c0.82,8.03-0.13,16.23,0.27,24.33c0.35,6.99,1.84,13.92,2.25,20.92c0.41,6.88-1.83,14.53,0.49,20.54
	c4.59,11.88,3.89,25.73,13.57,35.87c2.57,2.69,2.64,7.77,3.7,11.24c-4.69,5.77-10.38,4.56-15.74,4.91
	c-3.41,0.22-6.92-1.19-10.27,1.81c-1.84,1.65-4.9-0.61-7.39-1.25c-4.15-1.07-3.48-3.2-3.87-5.9c-0.25-1.77-2.06-3.35-2.24-5.1
	c-1-9.79-1.97-19.6-2.43-29.42c-0.3-6.27-4.24-11.93-2.58-18.48c0.94-3.69-1.57-7.93,2.33-11.33c1-0.87,0.93-4.38,0.02-5.83
	c-4.01-6.33-2.63-13.28-2.08-19.76c0.94-10.89-1.14-21.56-3.13-31.79c-3.28-16.84-1.02-33.52-1.89-50.22
	c-0.42-8.04-0.07-16.12-0.07-24.95c-7.4-0.29-13.72,2.17-20.22,4.22c-4.71,1.49-9.67,2.53-14.58,2.93
	c-5.15,0.42-8.13,3.15-10.16,7.36c-4.84,10.03-8.3,20.39-8.73,31.73c-0.38,10.23-1.85,20.42-2.26,30.65
	c-0.41,10.13-0.28,20.29,0,30.43c0.13,4.58-0.71,9.05,1.98,13.81c1.91,3.39,1.81,9.43,0.04,13.02c-2.89,5.88-2.78,11.83-1.86,17.37
	c1.98,11.9,1.64,24.6,9.45,35c0.64,0.85,0.39,2.41,1.08,3.16c2.74,2.99,5.69,5.79,8.56,8.66c-0.03,6.97-0.03,6.97-4.72,11.11
	C244.26,448.68,232.89,448.68,221.53,448.68z"/>
</svg>
