<?xml version="1.0" encoding="utf-8"?>
<!-- Generator: Adobe Illustrator 23.0.1, SVG Export Plug-In . SVG Version: 6.00 Build 0)  -->
<svg version="1.1" id="Layer_1" xmlns="http://www.w3.org/2000/svg" xmlns:xlink="http://www.w3.org/1999/xlink" x="0px" y="0px"
	 viewBox="0 0 599 178.68" style="enable-background:new 0 0 599 178.68;" xml:space="preserve">
<style type="text/css">
	.st0{fill:#FFFFFF;}
</style>
<path class="st0" d="M189.11,92.4h-9.81V81.25h22.4v31.83c-6.6,5-14.1,7.5-22.5,7.5c-8.85,0-15.51-3.03-20-9.09
	c-4.49-6.06-6.73-14.98-6.73-26.78c0-11.86,2.24-20.87,6.73-27.02c4.49-6.15,11.02-9.23,19.61-9.23c6.47,0,11.59,1.75,15.34,5.24
	c3.75,3.49,6.17,8.8,7.26,15.91l-13.46,1.63c-0.71-3.65-1.83-6.35-3.37-8.08c-1.54-1.73-3.62-2.6-6.25-2.6
	c-4.1,0-7.09,1.89-8.94,5.67c-1.86,3.78-2.79,9.84-2.79,18.17c0,8.4,1.06,14.5,3.17,18.32c2.12,3.81,5.51,5.72,10.19,5.72
	c3.33,0,6.38-0.77,9.13-2.31V92.4z"/>
<path class="st0" d="M236.12,120.57c-8.46,0-14.9-3.04-19.33-9.13c-4.42-6.09-6.63-15-6.63-26.73c0-11.79,2.26-20.78,6.78-26.97
	c4.52-6.19,11.11-9.28,19.76-9.28c8.46,0,14.9,3.05,19.33,9.13c4.42,6.09,6.64,15,6.64,26.73c0,11.8-2.26,20.79-6.78,26.97
	C251.36,117.48,244.78,120.57,236.12,120.57z M236.32,108.46c4.29,0,7.4-1.91,9.33-5.72c1.92-3.81,2.88-9.92,2.88-18.32
	c0-8.4-0.95-14.47-2.83-18.22c-1.89-3.75-4.95-5.63-9.18-5.63c-4.29,0-7.4,1.91-9.33,5.72c-1.92,3.81-2.88,9.92-2.88,18.32
	c0,8.4,0.95,14.47,2.84,18.22C229.02,106.58,232.09,108.46,236.32,108.46z"/>
<path class="st0" d="M304.87,50.19h13.56v44.04c0,8.53-1.99,15.05-5.96,19.57c-3.97,4.52-9.71,6.78-17.21,6.78
	c-7.5,0-13.24-2.26-17.21-6.78c-3.98-4.52-5.96-11.04-5.96-19.57V50.19h13.56v45c0,4.49,0.78,7.82,2.36,10
	c1.57,2.18,3.99,3.27,7.26,3.27c3.27,0,5.69-1.09,7.26-3.27c1.57-2.18,2.36-5.51,2.36-10V50.19z"/>
<path class="st0" d="M344.2,118.84l-17.69-68.65h14.52l11.73,54.13l11.35-54.13h14.04l-17.69,68.65H344.2z"/>
<path class="st0" d="M387.37,118.84V50.19h37.69V62.3h-24.13v15.29h22.6v12.12h-22.6v17.02h25.77l-1.44,12.12H387.37z"/>
<path class="st0" d="M450.73,88.55c-5.45-1.6-9.46-4.02-12.02-7.26c-2.56-3.24-3.85-7.48-3.85-12.74c0-6.09,1.99-10.96,5.96-14.62
	c3.97-3.65,9.23-5.48,15.77-5.48c6.22,0,11.06,1.57,14.52,4.71c3.46,3.14,5.64,7.98,6.54,14.52l-12.88,1.73
	c-0.64-3.59-1.6-6.14-2.88-7.64c-1.28-1.51-3.17-2.26-5.67-2.26c-2.5,0-4.42,0.72-5.77,2.16c-1.35,1.44-2.02,3.57-2.02,6.39
	c0,2.37,0.51,4.22,1.54,5.53c1.03,1.31,2.79,2.36,5.29,3.12l7.31,2.31c3.91,1.22,7.05,2.74,9.42,4.57c2.37,1.83,4.1,4.05,5.19,6.68
	c1.09,2.63,1.64,5.77,1.64,9.42c0,6.41-1.97,11.49-5.91,15.24c-3.94,3.75-9.31,5.63-16.11,5.63c-14.29,0-21.92-7.44-22.88-22.31
	h13.46c0.32,3.91,1.23,6.76,2.74,8.56c1.5,1.8,3.8,2.69,6.87,2.69c2.63,0,4.66-0.78,6.11-2.36c1.44-1.57,2.16-3.83,2.16-6.78
	c0-2.63-0.59-4.71-1.78-6.25c-1.19-1.54-3.06-2.69-5.63-3.46L450.73,88.55z"/>
<path d="M170,165.62l-2.03-7.95h-9.45l-2.03,7.95h-4.95l9.01-31.54h5.66l8.97,31.54H170z M163.24,139.07l-3.62,14.31h7.29
	L163.24,139.07z"/>
<path d="M195.97,165.62l-10.47-22.88v22.88H181v-31.54h4.99l10.47,22.88v-22.88h4.51v31.54H195.97z"/>
<path d="M209.12,165.62v-31.54h5.04v31.54H209.12z"/>
<path d="M243.88,165.62V142.6l-6.76,23.02h-3.71l-6.67-22.93v22.93h-4.42v-31.54h6.1l6.98,24.74l6.98-24.74h6.01v31.54H243.88z"/>
<path d="M272.65,165.62l-2.03-7.95h-9.45l-2.03,7.95h-4.95l9.01-31.54h5.66l8.97,31.54H272.65z M265.89,139.07l-3.62,14.31h7.29
	L265.89,139.07z"/>
<path d="M283.65,165.62v-31.54h5.04v27.08h11.53l-0.66,4.46H283.65z"/>
<path d="M321.91,151.08c-2.39-0.79-4.14-1.91-5.26-3.34c-1.12-1.43-1.68-3.26-1.68-5.5c0-2.68,0.87-4.84,2.61-6.49
	c1.74-1.65,4.04-2.47,6.89-2.47c2.71,0,4.82,0.69,6.32,2.08c1.5,1.39,2.47,3.51,2.92,6.36l-4.73,0.75
	c-0.41-1.83-0.97-3.12-1.66-3.89c-0.69-0.77-1.67-1.15-2.94-1.15c-1.38,0-2.45,0.4-3.18,1.19c-0.74,0.79-1.1,1.93-1.1,3.4
	c0,1.27,0.26,2.25,0.79,2.94c0.53,0.69,1.44,1.26,2.74,1.7l3.45,1.15c1.71,0.56,3.07,1.26,4.09,2.1c1.02,0.84,1.76,1.85,2.23,3.03
	c0.47,1.18,0.71,2.61,0.71,4.29c0,2.8-0.87,5.03-2.61,6.69c-1.74,1.66-4.05,2.5-6.94,2.5c-6.27,0-9.63-3.28-10.07-9.85h5.04
	c0.18,1.97,0.67,3.42,1.48,4.33c0.81,0.91,2.01,1.37,3.6,1.37c1.38,0,2.46-0.43,3.22-1.28c0.77-0.85,1.15-2.06,1.15-3.62
	c0-1.38-0.3-2.48-0.91-3.29c-0.6-0.81-1.6-1.45-2.98-1.92L321.91,151.08z"/>
<path d="M356.2,165.62v-14.09h-10.38v14.09h-5.04v-31.54h5.04v12.86h10.38v-12.86h5.04v31.54H356.2z"/>
<path d="M369.44,165.62v-31.54h16.39v4.46h-11.35v8.61h10.6v4.46h-10.6v9.54h12.15l-0.66,4.46H369.44z"/>
<path d="M392.83,165.62v-31.54h5.04v27.08h11.53l-0.66,4.46H392.83z"/>
<path d="M417.63,165.62v-27.08h-7.42v-4.46h19.88v4.46h-7.42v27.08H417.63z"/>
<path d="M435.99,165.62v-31.54h16.39v4.46h-11.35v8.61h10.6v4.46h-10.6v9.54h12.15l-0.66,4.46H435.99z"/>
<path d="M473.83,165.62l-4.99-12.68c-0.41,0.03-0.75,0.05-1.02,0.07c-0.26,0.02-0.52,0.02-0.75,0.02h-2.78v12.59h-4.9v-31.54h8.04
	c3.27,0,5.82,0.81,7.64,2.43c1.83,1.62,2.74,3.89,2.74,6.8c0,1.8-0.4,3.4-1.19,4.82c-0.79,1.41-1.91,2.53-3.36,3.36l5.88,14.14
	H473.83z M466.98,148.74c2.06,0,3.56-0.42,4.51-1.26c0.94-0.84,1.41-2.17,1.41-4c0-1.74-0.49-3.03-1.46-3.87
	c-0.97-0.84-2.46-1.26-4.46-1.26h-2.7v10.38H466.98z"/>
<path d="M88.22,178.68c-2.05-2.28-2.72-5.2-2.83-8.01c-0.26-6.94-0.83-14,0.11-20.82c1.1-8,0.38-15.92,0.76-23.87
	c0.09-1.77,0.49-3.74-0.11-5.29c-0.71-1.84-0.8-3.6-0.86-5.46c-0.05-1.74,0.41-3.87-0.41-5.12c-1.03-1.56,0.48-3.71-1.52-4.74
	c0.29-1.83-0.38-3.67,0.64-5.57c0.76-1.43,1.04-3.55-0.49-4.81c-2.94-2.42-6.08-4.58-9.67-7.25c0.02,4.45-1.61,7.96-1.19,11.8
	c0.21,1.88-3.05,10.18-4.34,12.24c-3.41,5.45-7.15,10.62-12,14.91c-1.65,1.46-2.53,3.26-3.18,5.48c-0.61,2.06-0.7,3.53,0.04,5.6
	c0.91,2.57,0.86,5.49,1.27,8.59c2.43,1.97,4.3,5,7.54,6.64c1.86,0.94,2.49,2.8,1.87,4.97c-3.96,1.83-7.96,2.25-11.76-0.44
	c-2.96-2.1-4.13-5.43-4.5-8.76c-0.41-3.68-2.01-7.03-2.39-10.68c-0.08-0.73-0.61-1.45-0.59-2.16c0.1-3.14-0.67-6.07-1.76-8.98
	c-0.65-1.75-0.25-3.29,1.28-4.64c2.81-2.49,4.88-5.61,6.9-8.76c0.98-1.53,2.26-4.81,2.27-6.33c0.02-2.1,0-4.2,0-6.66
	c-1.45-1-2.31-2.85-4.48-3.59c-2.6-0.9-2.93-1.27-4.3,0.87c-1.53,2.37-2.59,5.05-3.82,7.62c-0.84,1.75-1.27,3.82-2.48,5.25
	c-2.96,3.5-3.61,7.91-5.21,11.93c-0.42,1.07-0.6,2.31-0.94,3.48c-0.74,2.54-2.26,5.25-0.11,7.89c-0.5,2.75,0.71,5.54-0.81,8.41
	c-0.91,1.72-0.46,4.17-0.97,6.34c-0.88,3.77-0.75,7.78-1.15,11.68c-0.2,1.98-0.62,3.94-0.95,5.9c-0.02,0.14-0.11,0.28-0.18,0.41
	c-0.5,0.9-7.48,4.35-8.45,4.18c-1.75-0.3-3.71-2.92-2.92-4.68c1.97-4.44,2.2-9.34,4.19-13.78c1.28-2.85,1.92-6.04,2.45-9.15
	c0.39-2.27,0.47-4.58,0.87-6.89c0.49-2.87,0.36-5.82,1.88-8.48c0.28-0.5,0.4-1.31,0.19-1.82c-1.68-4.27-0.58-8.76-1.05-13.59
	c-4.22,1.88-8.32,3.17-12.81,3.18C7.77,115.71,4,113.77,0,112.14c3.91-0.53,7.83-0.41,11.74-0.37c2.7,0.03,5.16-0.64,7.42-2
	c0.83-0.5,1.63-1.28,2.09-2.13c2.43-4.46,2.45-5.58,1.06-11.88c-0.2-0.92-0.05-1.93-0.05-2.89c0-3.88,0.15-7.77-0.04-11.64
	c-0.32-6.65,2.84-11.76,6.86-16.57c3.76-4.51,8.44-7.98,13.6-10.5c4.53-2.22,9.18-4.45,14.22-5.45c4.22-0.84,8.32-2.56,12.77-1.95
	c2.29-1.52,4.91-0.63,7.35-1.02c3.43-0.54,6.92-1.03,10.17-2.34c4.64-1.89,7.77-5.53,10.79-9.39c2.47-3.15,3.59-6.97,5.75-10.25
	c0.48-0.73,0.44-1.91,1.03-2.45c3.08-2.79,1.99-5.43-0.03-8.14c-0.08-0.1-0.01-0.32-0.01-0.83c2.92-2.91,5.81-6.16,9.77-8.3
	c5.59-3.02,11.53-4.84,17.77-3.69c3.12,0.57,6.45,0.38,9.4,1.8c1.26,0.61,2.28,1.39,3.29,2.61c2.28,2.79,3.46,6.04,4.94,9.17
	c0.47,0.98,0.54,2.64,0.01,3.5c-1.14,1.85-0.4,2.9,0.86,4.06c2.66,2.46,5.31,4.94,8.33,7.75c-0.38,3.01-0.82,6.56-1.34,10.75
	c-0.46,0.42-1.37,1.34-2.37,2.14c-0.45,0.36-1.13,0.77-1.62,0.69c-1.7-0.29-2.51,0.97-3.72,1.66c-1.96,1.13-4.19,2.19-6.51,0.79
	c-1.09-0.66-2.09-0.86-2.97,0.1c-2.17,2.36-4.07,1.82-6.04-0.28c-0.47-0.49-1.34-0.6-2.49-1.08c-0.29,0.67-0.73,1.69-1.18,2.71
	c-0.3-0.23-0.61-0.45-0.91-0.68c0,4.01-0.09,8.03,0.04,12.03c0.06,1.65,0.72,3.28,0.89,4.94c0.18,1.69,0.34,3.28,0.86,4.97
	c0.85,2.77,0.92,5.82,1.08,8.77c0.16,3.06,0.72,6.33-0.08,9.18c-3.12,11.13-1.37,22.44-1.76,33.66c-0.11,3.15-1.43,6.07-1.1,9.3
	c0.33,3.2-0.05,6.46,0.11,9.69c0.14,2.78,0.73,5.55,0.9,8.33c0.16,2.74-0.73,5.79,0.2,8.18c1.83,4.73,1.55,10.25,5.4,14.29
	c1.02,1.07,1.05,3.09,1.47,4.47c-1.87,2.3-4.13,1.82-6.27,1.96c-1.36,0.09-2.76-0.47-4.09,0.72c-0.73,0.66-1.95-0.24-2.94-0.5
	c-1.65-0.43-1.39-1.27-1.54-2.35c-0.1-0.71-0.82-1.33-0.89-2.03c-0.4-3.9-0.78-7.8-0.97-11.72c-0.12-2.5-1.69-4.75-1.03-7.36
	c0.37-1.47-0.63-3.16,0.93-4.51c0.4-0.35,0.37-1.74,0.01-2.32c-1.6-2.52-1.05-5.29-0.83-7.87c0.37-4.34-0.45-8.59-1.25-12.66
	c-1.31-6.71-0.41-13.35-0.75-20c-0.17-3.2-0.03-6.42-0.03-9.94c-2.95-0.12-5.47,0.86-8.05,1.68c-1.88,0.59-3.85,1.01-5.81,1.17
	c-2.05,0.17-3.24,1.25-4.05,2.93c-1.93,3.99-3.31,8.12-3.47,12.63c-0.15,4.07-0.74,8.13-0.9,12.21c-0.16,4.03-0.11,8.08,0,12.12
	c0.05,1.82-0.28,3.6,0.79,5.5c0.76,1.35,0.72,3.75,0.02,5.19c-1.15,2.34-1.11,4.71-0.74,6.92c0.79,4.74,0.65,9.8,3.76,13.94
	c0.25,0.34,0.16,0.96,0.43,1.26c1.09,1.19,2.26,2.31,3.41,3.45c-0.01,2.78-0.01,2.78-1.88,4.42
	C97.27,178.68,92.75,178.68,88.22,178.68z"/>
<path d="M547.59,153.95c0.63,0.9,1.16,1.93,1.94,2.74c1.53,1.57,1.34,3.49,1,5.27c-0.25,1.3-1.53,2.09-2.92,2.16
	c-2.72,0.13-5.36,0.58-7.9,1.57c-0.2,0.08-0.41,0.15-0.61,0.16c-2.2,0.15-4.4,0.33-6.61,0.4c-1.85,0.06-2.58-0.55-3.04-2.29
	c-0.11-0.4-0.15-0.82-0.26-1.43c-3.02,0.39-5.93,0.93-8.86,1.08c-2.1,0.1-4.24-0.3-6.35-0.55c-0.47-0.06-0.93-0.38-1.35-0.64
	c-1.64-1.04-1.66-2.71-0.2-3.85c0.45-0.35,0.9-0.69,1.36-1.03c0.7-0.52,1.45-0.85,2.38-0.81c1.44,0.06,2.88,0.08,4.32,0.01
	c2.07-0.1,4.13-0.27,6.19-0.47c0.48-0.05,0.93-0.31,1.66-0.57c-1.16-0.92-2.07-1.86-3.16-2.48c-4.03-2.29-6.25-5.94-7.84-10.1
	c-0.17-0.45-0.38-0.9-0.61-1.46c-1.16,1.45-1.82,3.04-2.3,4.66c-1.23,4.21-3.3,8.01-5.47,11.78c-0.44,0.76-0.71,1.53-0.67,2.44
	c0.06,1.37,0.06,2.74,0.04,4.1c-0.02,1.53-0.8,2.55-2.19,3.12c-0.2,0.08-0.45,0.26-0.59,0.2c-0.97-0.42-1.89-0.17-2.86,0
	c-0.93,0.17-1.92,0.02-2.88-0.03c-1.39-0.07-3.35-1.53-3.6-2.64c-0.43-1.9,0.48-3.93,2.26-4.61c0.91-0.35,1.47-0.78,1.65-1.74
	c0.06-0.34,0.21-0.71,0.44-0.96c1.32-1.45,1.44-3.36,2.06-5.09c0.31-0.86,0.48-1.8,0.92-2.59c1.68-3.04,2.38-6.36,3.02-9.71
	c0.29-1.53,0.57-3.06,0.81-4.6c0.2-1.26-0.02-2.42-0.98-3.37c-0.67-0.66-1.33-1.32-1.96-2.01c-0.96-1.06-1.88-2.16-2.83-3.22
	c-1.04-1.15-1.52-1.19-2.72-0.29c-0.17,0.13-0.31,0.31-0.49,0.43c-1.73,1.12-2.9,0.79-4.26-0.73c-2.04-2.31-4.24-4.48-6.4-6.67
	c-0.85-0.86-1.84-1.59-2.7-2.44c-2.09-2.08-4.44-3.77-7.18-4.92c-1.58-0.66-3.08-1.44-4.4-2.6c-1.62-1.42-1.91-3.23-1.84-5.17
	c0.02-0.48,0.46-1.05,0.86-1.38c0.66-0.53,1.44-0.91,2.18-1.33c0.57-0.33,1.12-0.6,1.79-0.14c0.26,0.18,0.69,0.16,1.03,0.13
	c1.67-0.16,3.08,0.43,4.37,1.41c1.65,1.24,3.29,2.51,4.98,3.69c1.79,1.26,3.65,2.43,5.5,3.66c0.99-0.87,1.21-1.89,1.28-2.95
	c0.16-2.35,0.3-4.7,0.4-7.06c0.04-1.07,0.37-1.99,1.16-2.67c1.02-0.89,2.05-1.79,3.19-2.51c1.64-1.02,2.52-2.53,2.95-4.29
	c0.31-1.26,0.17-2.54-0.71-3.67c-0.83-1.07-1.53-2.23-2.28-3.36c-1.62-2.44-1.91-5.04-1.44-7.94c0.33-2.03,1.14-3.46,2.78-4.57
	c0.33-0.22,0.52-0.66,0.81-0.96c0.58-0.61,1.1-1.36,1.81-1.74c0.99-0.53,1.38-1.29,1.74-2.27c0.46-1.27,1.1-2.47,1.72-3.68
	c0.46-0.9,1.17-1.46,2.25-1.3c0.98,0.14,1.46,0.78,1.67,1.7c0.18,0.76,0.41,1.5,0.62,2.25c0.24,0.87,0.75,1.32,1.71,1.28
	c2.01-0.08,3.7,0.76,5.35,1.85c1.74,1.15,3.6,1.26,5.4,0c1.81-1.26,3.6-2.55,5.42-3.79c0.52-0.35,1.1-0.63,1.7-0.83
	c1.09-0.38,1.76-0.15,2.3,0.81c0.31,0.55,0.71,1.15,0.74,1.75c0.19,3.51,0.16,6.97-1.48,10.26c-0.87,1.75-2.04,3.26-3.21,4.78
	c-0.5,0.65-0.84,1.22-0.92,2.08c-0.24,2.32-1.45,3.98-3.77,4.67c-0.27,0.08-0.57,0.1-0.83,0.21c-1.33,0.55-2.34,1.45-2.52,2.93
	c-0.22,1.83-0.4,3.67,0.18,5.51c0.69,2.18,1.97,3.55,4.27,3.95c2.45,0.43,4.14,2.16,5.81,3.79c1.79,1.75,3.41,3.68,5.15,5.49
	c1.55,1.61,3.25,3.07,4.72,4.75c2.24,2.56,4.64,4.98,6.64,7.77c1.7,2.38,3.63,4.59,5.46,6.88c0.85,1.06,2.06,1.49,3.26,1.94
	c2.79,1.04,5.63,1.98,8.57,2.44c4.91,0.77,9.79,0.76,14.32-1.69c1.24-0.67,2.4-1.56,3.44-2.51c3.95-3.6,6.98-7.92,9.53-12.59
	c1.09-1.99,2.04-4.07,3.09-6.08c0.39-0.75,0.88-1.46,1.36-2.17c0.45-0.66,1.13-0.9,1.89-0.7c0.64,0.17,1.18,1.07,1.17,1.88
	c-0.01,0.35-0.09,0.7-0.15,1.05c-0.7,3.83-2.41,7.29-4.27,10.64c-1.52,2.73-3.32,5.31-5.04,7.94c-2.87,4.4-6.6,7.84-11.46,9.93
	c-3.08,1.32-6.29,2.17-9.68,2.3c-0.99,0.04-1.97,0.27-2.96,0.31c-0.47,0.02-0.95-0.23-1.44-0.28c-1.99-0.19-3.98-0.3-5.97-0.52
	c-1.23-0.13-2.06,0.22-2.52,1.43c-1.02,2.68-2.92,4.72-4.95,6.67C549.5,151.23,548.24,152.14,547.59,153.95z"/>
</svg>
