<?xml version="1.0" encoding="utf-8"?>
<!-- Generator: Adobe Illustrator 23.0.1, SVG Export Plug-In . SVG Version: 6.00 Build 0)  -->
<svg version="1.1" id="Layer_1" xmlns="http://www.w3.org/2000/svg" xmlns:xlink="http://www.w3.org/1999/xlink" x="0px" y="0px"
	 viewBox="0 0 101.84 98.69" style="enable-background:new 0 0 101.84 98.69;" xml:space="preserve">
<style type="text/css">
	.st0{fill:#FFFFFF;}
</style>
<g>
	<g>
		<path class="st0" d="M6.2,67.4c-0.01,0.05-0.01,0.1-0.02,0.15c-0.82,0-1.64-0.01-2.46,0c-0.35,0-0.67,0.1-0.7,0.53
			c-0.05,0.88,1.01,1.83,1.85,1.56c0.67-0.22,1.25-0.03,1.78,0.24c0.87,0.45,1.72,0.95,2.5,1.55c1.31,1,2.75,1.62,4.38,1.81
			c1.02,0.12,2.03,0.29,3.05,0.4c0.59,0.06,0.96,0.33,1.23,0.87c1.04,2.04,2.82,3.17,4.96,3.68c2.71,0.64,5.46,1.17,8.2,1.68
			c0.64,0.12,0.97,0.39,1.08,0.97c0.21,1.13,0.41,2.26,0.56,3.4c0.22,1.71,0.33,3.43,0.59,5.14c0.12,0.79-0.01,1.41-0.36,2.11
			c-0.71,1.39-0.92,2.89-0.46,4.42c0.28,0.92,0.84,1.6,1.83,1.81c0.48,0.1,0.97,0.19,1.45,0.23c2.43,0.2,4.73-0.42,7.02-1.11
			c0.81-0.24,1.46-0.75,1.94-1.46c0.3-0.44,0.6-0.89,0.83-1.37c1.43-2.86,3.27-5.5,4.46-8.48c0.06-0.15,0.15-0.29,0.24-0.43
			c0.46-0.73,0.71-0.85,1.53-0.67c2.05,0.47,4.13,0.64,6.23,0.65c2.34,0.01,4.68-0.09,7.01-0.41c2.84-0.4,5.7-0.69,8.55-1.03
			c0.6-0.07,1.19-0.16,1.75-0.24c0.48,1.03,1.01,1.91,1.33,2.87c0.78,2.38,1.49,4.78,2.16,7.19c0.22,0.78,0.2,1.63,0.34,2.43
			c0.25,1.45,0.83,2.11,2.28,2.34c1.41,0.23,2.85,0.31,4.28,0.46c1.27,0.13,2.06-0.54,2.72-1.52c1.25-1.88,1.92-3.99,2.57-6.12
			c0.72-2.36,1.22-4.79,2.09-7.08c0.48-1.28,0.8-2.56,1.06-3.87c0.17-0.84,0.43-1.59,0.99-2.21c1.83-2,2.94-4.46,4.13-6.82
			c1.79-3.55,2.47-7.48,2.6-11.45c0.1-2.95,0.1-5.91-0.17-8.87c-0.18-1.9-0.72-3.62-1.61-5.24c-0.39-0.71-0.92-1.34-1.45-1.96
			c-0.66-0.77-1.07-1.66-1.36-2.6c-0.34-1.1-0.01-1.59,1.12-1.85c0.32-0.07,0.64-0.15,0.97-0.18c0.49-0.05,1.06-0.01,1.25-0.58
			c0.18-0.53-0.22-0.93-0.53-1.31c-0.15-0.19-0.34-0.37-0.54-0.5c-1.51-0.97-3.15-1.39-4.94-0.99c-0.36,0.08-0.72,0.18-1.07,0.28
			c-0.91,0.24-1.77,0.17-2.63-0.28c-0.87-0.46-1.77-0.87-2.69-1.21c-2.3-0.86-4.64-1.62-6.93-2.52c-4.22-1.65-8.63-2.35-13.11-2.52
			c-4.23-0.15-8.45-0.08-12.68,0.39c-2.99,0.34-5.95,0.8-8.82,1.64c-2.87,0.84-5.71,1.81-8.43,3.11c-1.97,0.94-3.93,1.88-5.61,3.3
			c-0.46,0.39-0.9,0.81-1.39,1.24c-0.89-0.7-1.69-1.32-2.49-1.96c-1.35-1.08-2.74-2.11-4.44-2.58c-0.37-0.1-0.91-0.22-1.15-0.03
			c-0.5,0.37-1,0.3-1.52,0.3c-1.05,0-1.99,0.62-2.15,1.62c-0.32,1.98-0.42,3.97,0.57,5.84c0.2,0.38,0.25,0.83,0.33,1.14
			c-1.04,0.65-2.02,1.13-2.82,1.81c-1.5,1.27-2.99,2.58-4.31,4.03c-1.27,1.39-2.38,2.94-3.45,4.5C8.56,55.3,7,56.15,4.98,56.19
			c-1.23,0.02-2.47-0.05-3.7-0.03C0.31,56.18-0.02,56.47,0,57.42c0.02,1.1,0.05,2.23,0.28,3.3c0.3,1.4,0.79,2.76,1.24,4.12
			c0.23,0.69,0.71,1.14,1.46,1.37C4.08,66.54,5.13,67,6.2,67.4z"/>
		<path d="M6.2,67.4c-1.07-0.4-2.13-0.86-3.22-1.19c-0.75-0.23-1.23-0.68-1.46-1.37c-0.45-1.36-0.94-2.72-1.24-4.12
			c-0.23-1.07-0.26-2.2-0.28-3.3c-0.02-0.95,0.31-1.24,1.28-1.26c1.23-0.02,2.47,0.05,3.7,0.03C7,56.15,8.56,55.3,9.72,53.61
			c1.07-1.56,2.18-3.11,3.45-4.5c1.32-1.45,2.81-2.76,4.31-4.03c0.8-0.68,1.78-1.15,2.82-1.81c-0.09-0.31-0.13-0.77-0.33-1.14
			c-0.99-1.88-0.89-3.86-0.57-5.84c0.16-1,1.1-1.62,2.15-1.62c0.52,0,1.02,0.07,1.52-0.3c0.24-0.18,0.78-0.07,1.15,0.03
			c1.7,0.47,3.09,1.5,4.44,2.58c0.8,0.64,1.61,1.26,2.49,1.96c0.49-0.44,0.93-0.86,1.39-1.24c1.68-1.42,3.64-2.36,5.61-3.3
			c2.72-1.29,5.56-2.27,8.43-3.11c2.87-0.83,5.83-1.3,8.82-1.64c4.23-0.48,8.45-0.55,12.68-0.39c4.49,0.16,8.89,0.87,13.11,2.52
			c2.29,0.89,4.63,1.65,6.93,2.52c0.92,0.34,1.82,0.76,2.69,1.21c0.86,0.45,1.71,0.52,2.63,0.28c0.36-0.09,0.71-0.19,1.07-0.28
			c1.79-0.4,3.42,0.02,4.94,0.99c0.2,0.13,0.39,0.31,0.54,0.5c0.31,0.38,0.71,0.78,0.53,1.31c-0.19,0.56-0.76,0.53-1.25,0.58
			c-0.33,0.04-0.65,0.11-0.97,0.18c-1.13,0.26-1.46,0.75-1.12,1.85c0.29,0.94,0.7,1.83,1.36,2.6c0.53,0.61,1.06,1.25,1.45,1.96
			c0.89,1.63,1.44,3.35,1.61,5.24c0.28,2.96,0.27,5.92,0.17,8.87c-0.13,3.97-0.81,7.9-2.6,11.45c-1.18,2.35-2.3,4.82-4.13,6.82
			c-0.57,0.62-0.83,1.37-0.99,2.21c-0.26,1.31-0.58,2.6-1.06,3.87c-0.87,2.29-1.37,4.73-2.09,7.08c-0.65,2.12-1.32,4.24-2.57,6.12
			c-0.66,0.98-1.45,1.65-2.72,1.52c-1.43-0.15-2.86-0.23-4.28-0.46c-1.45-0.24-2.03-0.89-2.28-2.34c-0.14-0.81-0.12-1.65-0.34-2.43
			c-0.67-2.41-1.38-4.81-2.16-7.19c-0.31-0.96-0.84-1.84-1.33-2.87c-0.56,0.08-1.16,0.17-1.75,0.24c-2.85,0.34-5.71,0.63-8.55,1.03
			c-2.33,0.33-4.66,0.42-7.01,0.41c-2.1,0-4.18-0.18-6.23-0.65c-0.82-0.19-1.07-0.06-1.53,0.67c-0.09,0.14-0.18,0.28-0.24,0.43
			c-1.19,2.98-3.04,5.62-4.46,8.48c-0.24,0.48-0.54,0.92-0.83,1.37c-0.47,0.71-1.13,1.21-1.94,1.46c-2.29,0.69-4.59,1.32-7.02,1.11
			c-0.49-0.04-0.97-0.13-1.45-0.23c-0.99-0.21-1.55-0.88-1.83-1.81c-0.46-1.53-0.25-3.03,0.46-4.42c0.36-0.7,0.48-1.32,0.36-2.11
			c-0.27-1.7-0.38-3.43-0.59-5.14c-0.14-1.14-0.35-2.27-0.56-3.4c-0.11-0.58-0.44-0.85-1.08-0.97c-2.74-0.5-5.49-1.04-8.2-1.68
			c-2.15-0.51-3.93-1.63-4.96-3.68c-0.27-0.54-0.64-0.81-1.23-0.87c-1.02-0.11-2.03-0.28-3.05-0.4c-1.63-0.19-3.07-0.81-4.38-1.81
			c-0.77-0.59-1.63-1.1-2.5-1.55c-0.53-0.27-1.11-0.46-1.78-0.24c-0.84,0.27-1.91-0.68-1.85-1.56c0.03-0.43,0.34-0.53,0.7-0.53
			c0.82-0.01,1.64,0,2.46,0C6.19,67.5,6.2,67.45,6.2,67.4z M50.69,34.63c6.67-2,13.33-2.2,20.16-0.95c0.21-0.43-5.21-2.67-8.13-2.62
			c-4.34,0.07-8.67,0.43-12.76,2.19C50.02,33.48,49.97,33.91,50.69,34.63z"/>
		<path class="st0" d="M50.69,34.63c-0.24-0.37,7.69-3.51,12.03-3.57c2.54-0.04,5.1,0.21,7.68,0.89c0.6,0.16,0.9,0.85,0.62,1.41
			l-0.16,0.32C64.02,32.43,57.36,32.63,50.69,34.63z"/>
	</g>
</g>
<circle cx="60.73" cy="12" r="12"/>
<g>
	<path class="st0" d="M56.43,12.15c-0.03-0.2-0.03-0.39-0.03-0.59s0-0.38,0.02-0.58h-1V9.69h1.3c0.76-2.2,2.85-3.78,5.34-3.78
		c1.17,0,2.29,0.36,3.23,1.02l-0.71,1.46c-0.7-0.55-1.59-0.87-2.52-0.87c-1.56,0-2.93,0.88-3.61,2.17h4.42v1.29h-4.84
		c-0.03,0.2-0.05,0.38-0.05,0.58c0,0.21,0.01,0.39,0.05,0.59h4.84v1.29h-4.42c0.7,1.29,2.05,2.15,3.61,2.15
		c0.97,0,1.82-0.35,2.55-0.89l0.68,1.5c-0.94,0.62-2.06,1.02-3.23,1.02c-2.47,0-4.57-1.58-5.34-3.78h-1.3v-1.29H56.43z"/>
</g>
</svg>
